<svg id="Layer_5" enable-background="new 0 0 64 64" height="512" viewBox="0 0 64 64" width="512" xmlns="http://www.w3.org/2000/svg"><g><path d="m18 32c2.206 0 4-1.794 4-4h-2c0 1.103-.897 2-2 2s-2-.897-2-2h-2c0 2.206 1.794 4 4 4z"/><path d="m36.59 56.394c1.561-.411 3.057-1.032 4.46-1.851l2.461 1.23 5.263-5.262-1.231-2.461c.819-1.403 1.44-2.899 1.852-4.46l2.605-.869v-7.441l-2.606-.869c-.411-1.561-1.032-3.057-1.852-4.46l.476-.951h8.982c3.309 0 6-2.691 6-6 0-2.968-2.166-5.439-5-5.917 0-.028 0-.056 0-.083 0-5.514-4.486-10-10-10-1.261 0-2.482.232-3.645.692-2.279-4.096-6.633-6.692-11.355-6.692-5.948 0-11.058 4.045-12.55 9.65-.732-.416-1.568-.65-2.45-.65-1.638 0-3.128.786-4.057 2.096-.314-.064-.63-.096-.943-.096-2.56 0-4.676 1.933-4.966 4.416-1.819.775-3.034 2.565-3.034 4.584 0 1.468.631 2.816 1.697 3.75-.439.642-.697 1.416-.697 2.25 0 2.206 1.794 4 4 4h1.198c.638 1.162 1.511 2.108 2.568 2.79l-.485 1.284-5.585.621c-2.057.229-3.949 1.31-5.19 2.965-.971 1.294-1.506 2.898-1.506 4.516v6.824c0 2.757 2.243 5 5 5v2h-5v6h62v-6h-26.612zm8.964-25.867c.948 1.514 1.63 3.156 2.026 4.881l.126.547 2.294.766v4.559l-2.294.765-.126.547c-.396 1.725-1.078 3.367-2.026 4.881l-.298.476 1.084 2.168-3.224 3.223-2.167-1.083-.477.298c-1.514.949-3.156 1.63-4.881 2.026l-.548.125-.764 2.294h-4.279v-2c1.708 0 3.215-.863 4.118-2.174 6.805-1.033 11.882-6.883 11.882-13.826 0-3.827-1.536-7.396-4.205-10h3.986l-.526 1.052zm-27.054 24.473c1.93 0 3.5-1.57 3.5-3.5s-1.57-3.5-3.5-3.5h-6.5v-4h12v13h-12v-2zm0-5c.827 0 1.5.673 1.5 1.5s-.673 1.5-1.5 1.5h-2.5v-3zm7.5 5h2v2h-2zm-3.767-21.21c1.057-.682 1.931-1.628 2.568-2.79h1.199c1.474 0 2.75-.81 3.444-2h1.556v4.095c-1.561.269-2.958 1.151-3.881 2.467l-4.4-.489zm3.767-7.79v-1c1.103 0 2 .897 2 2s-.897 2-2 2h-.395c.254-.924.395-1.927.395-3zm12.611 3c3.092 2.047 5.024 5.34 5.326 9h-6.027c-.423-2.507-2.403-4.486-4.91-4.91v-4.09zm-3.611 21v-5.822c1.548-.897 2.611-2.429 2.908-4.178h6.045c-.424 5.126-4.075 9.387-9.017 10.627.027-.208.064-.412.064-.627zm-3-15c2.206 0 4 1.794 4 4 0 1.061-.429 2.049-1.145 2.783-.214-1.126-.672-2.204-1.361-3.124-1.002-1.336-2.43-2.288-4.024-2.73.704-.588 1.592-.929 2.53-.929zm1-32c4.275 0 8.196 2.518 9.988 6.415l.437.949.929-.477c1.144-.589 2.371-.887 3.646-.887 4.411 0 8 3.589 8 8 0 .303-.021.601-.054.895l-.124 1.111h1.118l.121-.006c2.177.033 3.939 1.815 3.939 4 0 2.206-1.794 4-4 4h-27c0-.834-.258-1.608-.697-2.25 1.066-.935 1.697-2.283 1.697-3.75 0-2.019-1.215-3.809-3.034-4.584-.29-2.483-2.406-4.416-4.966-4.416-.273 0-.548.035-.822.083.917-5.213 5.469-9.083 10.822-9.083zm-23.739 15.106.786-.201-.034-.811c-.002-.049-.007-.097-.012-.097 0 0-.001.001-.001.002 0-1.997 1.979-3.586 4.055-2.796l.856.325.398-.825c.508-1.05 1.539-1.703 2.691-1.703s2.183.653 2.69 1.704l.398.825.856-.325c2.076-.789 4.055.813 4.058 2.731l-.05.971.786.201c1.332.339 2.262 1.529 2.262 2.893 0 .978-.467 1.867-1.24 2.426-.534-.264-1.126-.426-1.76-.426h-.184c-.414-1.161-1.514-2-2.816-2-1.11 0-2.186-.326-3.109-.941l-1.891-1.261-1.891 1.26c-.923.616-1.999.942-3.109.942-1.302 0-2.402.839-2.816 2h-.184c-.634 0-1.227.162-1.76.426-.773-.559-1.24-1.448-1.24-2.426 0-1.364.93-2.554 2.261-2.894zm.739 10.894c-1.103 0-2-.897-2-2s.897-2 2-2v1c0 1.073.141 2.076.395 3zm2-3v-2c0-.551.448-1 1-1 1.506 0 2.965-.442 4.219-1.277l.781-.521.781.521c1.254.835 2.713 1.277 4.219 1.277.552 0 1 .449 1 1v2c0 4.252-2.355 7-6 7s-6-2.748-6-7zm6 9c.857 0 1.666-.126 2.417-.358l.419 1.108-2.836 2.836-2.836-2.836.419-1.108c.751.232 1.56.358 2.417.358zm-15 15v-6.824c0-1.188.393-2.366 1.105-3.316.912-1.216 2.302-2.009 3.812-2.178l5.716-.635 4.367 4.367 4.367-4.367 5.716.635c1.51.168 2.899.962 3.812 2.178.712.95 1.105 2.127 1.105 3.316v6.824c0 1.654-1.346 3-3 3h-4v-3h2.172c.263 0 .521.107.707.293l.414.414 1.414-1.414-.414-.414c-.091-.091-.193-.164-.293-.241v-4.638h-2v4h-2v-6h-16v6h-2v-4h-2v4.638c-.1.077-.202.15-.293.241l-.414.414 1.414 1.414.414-.414c.187-.186.444-.293.707-.293h6.172v3h-8c-1.654 0-3-1.346-3-3zm5 5h2v2h-2zm53 6h-58v-2h58z"/><path d="m33 7v-2c-3.198 0-6.184 1.721-7.791 4.491l1.73 1.004c1.25-2.156 3.573-3.495 6.061-3.495z"/><path d="m50 17h2v2h-2z"/><path d="m38 17h2v2h-2z"/><path d="m34 17h2v2h-2z"/><path d="m42 17h2v2h-2z"/><path d="m46 17h2v2h-2z"/><circle cx="15" cy="25" r="1"/><circle cx="21" cy="25" r="1"/></g></svg>